<?xml version="1.0" standalone="no"?><!DOCTYPE svg PUBLIC "-//W3C//DTD SVG 1.1//EN" "http://www.w3.org/Graphics/SVG/1.1/DTD/svg11.dtd"><svg t="1622091471500" class="icon" viewBox="0 0 1024 1024" version="1.1" xmlns="http://www.w3.org/2000/svg" p-id="6848" xmlns:xlink="http://www.w3.org/1999/xlink" width="200" height="200"><defs><style type="text/css"></style></defs><path d="M841.728 423.936V141.312l-161.28-43.008h-0.512c-13.312 36.352-83.456 64.512-167.936 64.512s-154.624-27.648-167.936-64l-163.328 43.52v281.6a199.68 199.68 0 0 1-29.184 103.936v422.912h720.384v-420.864a201.6256 201.6256 0 0 1-30.208-105.984z" fill="#FC9A0D" p-id="6849"></path><path d="M510.464 184.32c100.352 0 181.76-33.28 181.76-74.24a28.9792 28.9792 0 0 0-1.536-9.216l-10.24-2.56h-0.512c-13.312 36.352-83.456 64.512-167.936 64.512s-154.624-27.648-167.936-64l-14.336 3.584a39.5264 39.5264 0 0 0-1.024 7.68c0 40.96 81.408 74.24 181.76 74.24zM782.336 459.776V125.952l60.928 16.384v281.6a199.68 199.68 0 0 0 29.184 103.936v99.328a201.472 201.472 0 0 1-90.112-167.424z" fill="#FFFFFF" p-id="6850"></path><path d="M872.704 627.6608l-0.4096-0.256a201.7792 201.7792 0 0 1-90.2144-167.6288V125.5936h0.3072l61.1328 16.4352v281.6a199.168 199.168 0 0 0 29.1328 103.7824z m-90.112-501.4016V459.776a201.2672 201.2672 0 0 0 89.6 166.9632v-98.816a199.68 199.68 0 0 1-29.184-103.9872v-281.6z" p-id="6851"></path><path d="M827.904 138.24v315.904c3.072 25.088 15.872 82.432 44.544 110.592v37.888c-61.44-32.768-74.24-140.8-74.752-145.92V129.536z" fill="#2A1A5B" p-id="6852"></path><path d="M241.664 459.776V125.952l-60.928 16.384v281.6a199.68 199.68 0 0 1-29.184 103.936v99.328a200.2432 200.2432 0 0 0 90.112-167.424z" fill="#FFFFFF" p-id="6853"></path><path d="M151.296 627.6608v-99.84a199.2192 199.2192 0 0 0 29.184-103.8848v-281.6l61.44-16.4864V459.776a200.8576 200.8576 0 0 1-90.2144 167.6288z m0.512-99.7376v98.7648a200.3456 200.3456 0 0 0 89.6-166.912V126.3104l-60.416 16.2304v281.6a199.68 199.68 0 0 1-29.184 103.7824z" p-id="6854"></path><path d="M196.608 138.24v315.904c-3.072 25.088-15.872 82.432-44.544 110.592v37.888c61.44-32.768 74.24-140.8 74.752-145.92V129.536z" fill="#2A1A5B" p-id="6855"></path><path d="M512 285.696a196.352 196.352 0 0 0 195.584-180.224l-27.136-7.168h-0.512c-4.096 11.776-14.336 22.528-28.672 31.744a145.0496 145.0496 0 0 1-278.528 0c-14.336-9.216-24.576-19.968-28.672-31.744l-27.648 7.168A197.0688 197.0688 0 0 0 512 285.696z" fill="#FFFFFF" p-id="6856"></path><path d="M512 285.952a195.328 195.328 0 0 1-133.12-52.3776 197.5296 197.5296 0 0 1-62.72-128l27.904-7.2192c3.9424 11.3152 13.568 21.9648 28.5696 31.5904a144.7936 144.7936 0 0 0 278.016 0c15.0016-9.6768 24.6272-20.48 28.5696-31.5904h0.768l27.3408 7.2192A196.608 196.608 0 0 1 512 285.952zM316.672 105.6768a195.9936 195.9936 0 0 0 390.6048 0l-26.88-7.1168h-0.3072c-3.9936 11.3664-13.6192 21.9648-28.6208 31.6416a145.6128 145.6128 0 0 1-51.2 74.9056 145.2544 145.2544 0 0 1-176.0768 0 146.3296 146.3296 0 0 1-51.6608-74.9056c-14.9504-9.6256-24.576-20.48-28.6208-31.5904z" fill="#333333" p-id="6857"></path><path d="M512 270.336a180.8384 180.8384 0 0 0 180.224-168.96l-11.776-3.072h-0.512a47.5648 47.5648 0 0 1-9.728 15.872 160 160 0 0 1-316.416 0 47.2576 47.2576 0 0 1-9.216-15.36l-12.288 3.584A179.8656 179.8656 0 0 0 512 270.336z" fill="#2A1A5B" p-id="6858"></path><path d="M152.064 902.144h719.872v49.152H152.064z" fill="#C17111" p-id="6859"></path><path d="M501.1456 775.8848v40.96h-132.096v-34.3552q58.7264-96 69.7856-118.8352t11.0592-35.84a25.6 25.6 0 0 0-3.328-14.6432 11.5712 11.5712 0 0 0-10.24-4.8128 11.2128 11.2128 0 0 0-10.24 5.12 44.9536 44.9536 0 0 0-3.328 21.248v22.8864H369.0496v-8.7552a190.8224 190.8224 0 0 1 2.0992-31.8976 55.9616 55.9616 0 0 1 10.24-22.9376 51.2 51.2 0 0 1 21.248-17.1008 76.8 76.8 0 0 1 31.3344-5.7856q35.84 0 54.1696 17.7664a59.904 59.904 0 0 1 18.3296 44.9536 106.9568 106.9568 0 0 1-10.24 43.6736q-10.24 23.04-60.8768 97.792zM640.8704 576.3072v157.2352h17.1008v40.96h-17.1008v42.3424h-60.0576v-42.3424H509.4912v-40.96l51.8656-157.2352z m-60.0576 157.2352v-102.4l-26.5216 102.4z" fill="#FFFFFF" p-id="6860"></path><path d="M306.3296 465.3056H322.56a27.5456 27.5456 0 0 0 4.5056-0.3072 10.9056 10.9056 0 0 0 3.072-0.9728 7.936 7.936 0 0 0 2.304-1.792 13.9264 13.9264 0 0 0 1.9456-3.0208 29.5424 29.5424 0 0 0 1.792-4.7104q0.8192-2.8672 2.0992-8.5504h6.2976l-1.024 25.088h-56.32v-3.072a12.9024 12.9024 0 0 0 5.12-2.2016 6.0416 6.0416 0 0 0 1.7408-3.4816 42.3936 42.3936 0 0 0 0.4096-6.8608V401.3568a45.312 45.312 0 0 0-0.3072-6.2976 7.8848 7.8848 0 0 0-1.024-3.072 5.12 5.12 0 0 0-1.8944-1.7408 20.7872 20.7872 0 0 0-4.0448-1.4848v-3.072h26.3168v3.072a22.2208 22.2208 0 0 0-3.8912 1.3312 5.4272 5.4272 0 0 0-1.8944 1.5872 7.3728 7.3728 0 0 0-1.1264 3.072 40.96 40.96 0 0 0-0.3584 6.5536zM402.688 471.04v-3.072a20.48 20.48 0 0 0 4.6592-1.3824 5.12 5.12 0 0 0 2.304-2.0992 7.3728 7.3728 0 0 0 0.768-3.584 23.552 23.552 0 0 0-0.512-4.608q-0.512-2.4576-1.4336-5.5296l-2.304-8.0384h-29.184l-2.1504 6.144A60.7744 60.7744 0 0 0 372.736 455.68a21.0432 21.0432 0 0 0-0.512 4.3008 7.1168 7.1168 0 0 0 1.9456 5.9392 10.8032 10.8032 0 0 0 5.8368 2.304V471.04H353.28v-3.072a9.472 9.472 0 0 0 6.0928-4.0448 41.6768 41.6768 0 0 0 5.12-10.24l26.0608-69.1712h9.8304l21.248 69.6832a67.1744 67.1744 0 0 0 2.6624 7.424 11.5712 11.5712 0 0 0 2.7648 3.9936 10.24 10.24 0 0 0 4.4544 2.1504V471.04zM378.88 437.2992h26.112l-11.8784-40.2944zM461.6704 424.2944h1.8944a12.1344 12.1344 0 0 0 4.352-0.768 16.0768 16.0768 0 0 0 4.4032-2.816 87.552 87.552 0 0 0 7.424-7.68q5.9904-6.7072 8.192-9.6768a25.6 25.6 0 0 0 3.584-5.9904 9.1136 9.1136 0 0 0 0.768-3.4816 4.4032 4.4032 0 0 0-1.4336-3.6352 7.3216 7.3216 0 0 0-3.9424-1.3824v-3.072h27.2384v3.072a14.1824 14.1824 0 0 0-3.9424 1.536 20.9408 20.9408 0 0 0-3.9936 3.0208q-2.048 1.8944-5.9904 6.2976l-20.992 23.6544 22.7328 33.0752a59.5968 59.5968 0 0 0 5.6832 7.3216 16.0768 16.0768 0 0 0 3.9424 3.072 12.6464 12.6464 0 0 0 3.9936 1.28V471.04h-27.392v-3.072a7.5776 7.5776 0 0 0 3.3792-0.8704 2.304 2.304 0 0 0 1.0752-2.048 6.912 6.912 0 0 0-0.7168-2.7136 25.6 25.6 0 0 0-2.304-3.84l-14.5408-21.7088a43.8272 43.8272 0 0 0-3.7376-5.12 7.936 7.936 0 0 0-2.56-1.8432 9.472 9.472 0 0 0-3.6864-0.6144h-3.328v26.1632a46.7456 46.7456 0 0 0 0.3072 6.144 8.6016 8.6016 0 0 0 0.9216 3.072 5.12 5.12 0 0 0 1.9456 1.8944 17.4592 17.4592 0 0 0 4.1472 1.4848v3.072h-26.368v-3.072a12.9024 12.9024 0 0 0 5.12-2.2016 6.0928 6.0928 0 0 0 1.7408-3.4816 42.3936 42.3936 0 0 0 0.4096-6.8608V401.3568a44.3392 44.3392 0 0 0-0.3072-6.2976 7.8848 7.8848 0 0 0-1.024-3.072 5.12 5.12 0 0 0-1.8944-1.7408 20.992 20.992 0 0 0-4.0448-1.4848v-3.072h26.3168v3.072a17.152 17.152 0 0 0-3.9936 1.3824 5.7344 5.7344 0 0 0-1.9456 1.7408 7.68 7.68 0 0 0-1.0752 3.072 42.3936 42.3936 0 0 0-0.3584 6.3488zM584.8576 385.7408V404.48H578.56a52.2752 52.2752 0 0 0-1.9456-5.12 23.7568 23.7568 0 0 0-2.048-3.8912 10.24 10.24 0 0 0-2.3552-2.5088 7.5776 7.5776 0 0 0-3.0208-1.28 22.3744 22.3744 0 0 0-4.1984-0.3584h-19.7632v32.768h13.3632a9.728 9.728 0 0 0 4.3008-0.768 6.144 6.144 0 0 0 2.6112-2.6624 24.7296 24.7296 0 0 0 1.9456-5.888H573.44v24.0128h-5.888a22.6816 22.6816 0 0 0-1.9456-5.632 6.7072 6.7072 0 0 0-2.4064-3.072 9.3696 9.3696 0 0 0-4.4032-0.8192h-13.3632v35.84h19.456a18.9952 18.9952 0 0 0 5.12-0.512 7.7824 7.7824 0 0 0 3.2768-1.792 12.032 12.032 0 0 0 2.4576-3.328 28.672 28.672 0 0 0 1.792-4.3008q0.7168-2.2016 1.9456-6.4512h6.1952l-1.3824 22.3232h-57.856v-3.072a12.9024 12.9024 0 0 0 5.12-2.2016 6.0416 6.0416 0 0 0 1.7408-3.4816 42.3936 42.3936 0 0 0 0.4096-6.8608V401.3568a45.312 45.312 0 0 0-0.3072-6.2976 7.8848 7.8848 0 0 0-1.024-3.072 5.12 5.12 0 0 0-1.8944-1.7408 20.7872 20.7872 0 0 0-4.0448-1.4848v-3.072zM618.2912 433.9712v21.248a43.52 43.52 0 0 0 0.3584 6.5536 7.9872 7.9872 0 0 0 1.024 3.072 5.12 5.12 0 0 0 1.8944 1.6896 21.4016 21.4016 0 0 0 4.0448 1.4848V471.04H599.04v-3.072a12.9024 12.9024 0 0 0 5.12-2.2016 6.0416 6.0416 0 0 0 1.7408-3.4816 42.3936 42.3936 0 0 0 0.4096-6.8608V401.3568a45.312 45.312 0 0 0-0.3072-6.2976 7.8848 7.8848 0 0 0-1.024-3.072 5.12 5.12 0 0 0-1.8944-1.7408 20.7872 20.7872 0 0 0-4.0448-1.4848v-3.072h30.72a36.9664 36.9664 0 0 1 21.8624 5.12 19.0976 19.0976 0 0 1 7.2704 16.4864 22.784 22.784 0 0 1-4.7104 14.5408 30.72 30.72 0 0 1-14.1312 9.3696v0.512a18.3296 18.3296 0 0 1 6.5536 4.4544 44.9024 44.9024 0 0 1 6.4 9.2672l5.632 10.24a61.44 61.44 0 0 0 4.1984 6.8608 15.36 15.36 0 0 0 3.584 3.6352 11.9296 11.9296 0 0 0 4.8128 1.7408V471.04h-17.3056a74.0352 74.0352 0 0 1-4.5056-7.1168q-2.1504-3.7888-4.1984-7.7312l-5.4784-10.24a65.6896 65.6896 0 0 0-4.096-7.0144 12.544 12.544 0 0 0-2.9184-3.1744 8.4992 8.4992 0 0 0-2.8672-1.2288 23.04 23.04 0 0 0-4.608-0.3584z m0-42.496v37.12h7.0656a40.0896 40.0896 0 0 0 8.8064-0.768 16.2816 16.2816 0 0 0 6.2464-2.9696 15.0528 15.0528 0 0 0 4.608-6.0928 23.808 23.808 0 0 0 1.7408-9.5744 21.4016 21.4016 0 0 0-2.048-9.8816 13.5168 13.5168 0 0 0-6.144-5.9904 25.1392 25.1392 0 0 0-11.1104-2.048q-5.6832-0.0512-9.1648 0.2048zM687.872 451.584a26.2656 26.2656 0 0 0 3.3792 8.704 12.9024 12.9024 0 0 0 5.4784 4.7104 21.1456 21.1456 0 0 0 8.704 1.536 15.36 15.36 0 0 0 11.2128-3.7888 14.848 14.848 0 0 0 3.8912-11.1104 17.2544 17.2544 0 0 0-1.6384-7.8848 17.9712 17.9712 0 0 0-5.12-5.9904 72.4992 72.4992 0 0 0-11.264-6.5536 61.8496 61.8496 0 0 1-11.5712-7.1168 23.9616 23.9616 0 0 1-6.3488-7.5264 19.0976 19.0976 0 0 1-2.0992-8.8576 22.1696 22.1696 0 0 1 3.2768-12.1344 21.248 21.248 0 0 1 9.6256-7.9872 35.5328 35.5328 0 0 1 14.5408-2.816 73.5232 73.5232 0 0 1 20.48 2.7648V404.48h-6.1952a26.2656 26.2656 0 0 0-3.6352-8.5504 11.9808 11.9808 0 0 0-5.12-4.3008 20.0704 20.0704 0 0 0-7.6288-1.2288 17.0496 17.0496 0 0 0-7.2704 1.4848 11.6736 11.6736 0 0 0-5.12 4.5056 13.4656 13.4656 0 0 0-1.8944 7.2192 16.0768 16.0768 0 0 0 1.5872 7.4752 17.664 17.664 0 0 0 5.12 5.6832 59.5456 59.5456 0 0 0 10.24 5.888 76.3392 76.3392 0 0 1 12.0832 7.424 26.1632 26.1632 0 0 1 6.8608 7.8336 20.48 20.48 0 0 1 2.4576 10.24 26.7264 26.7264 0 0 1-2.048 11.1104 19.2512 19.2512 0 0 1-5.7344 7.3728 23.296 23.296 0 0 1-8.7552 4.1472 46.08 46.08 0 0 1-11.1616 1.28 92.16 92.16 0 0 1-22.6304-3.328V451.584z" fill="#2A1A5B" p-id="6861"></path><path d="M872.448 950.528v-420.864a201.6256 201.6256 0 0 1-30.208-105.984v-282.624l-161.28-43.008h-0.512c-13.312 36.352-83.456 64.512-167.936 64.512h-6.144v787.968z" opacity=".15" p-id="6862"></path></svg>